<svg width="339" height="175" viewBox="0 0 339 175" fill="none" xmlns="http://www.w3.org/2000/svg">
<circle cx="87.6774" cy="87.7255" r="80.5385" stroke="white" stroke-width="13"/>
<path fill-rule="evenodd" clip-rule="evenodd" d="M184.639 6.90417C184.639 3.31432 187.549 0.404175 191.139 0.404175L332.069 0.404175C335.659 0.404175 338.569 3.31432 338.569 6.90417C338.569 10.494 335.659 13.4042 332.069 13.4042L191.139 13.4042C187.549 13.4042 184.639 10.494 184.639 6.90417Z" fill="white"/>
<path fill-rule="evenodd" clip-rule="evenodd" d="M186.381 30.4034C188.827 27.7761 192.94 27.6292 195.568 30.0754L261.604 91.5574L327.64 30.0754C330.268 27.6292 334.381 27.7761 336.827 30.4034C339.273 33.0308 339.126 37.1438 336.499 39.59L271.143 100.438L336.499 161.287C339.126 163.733 339.273 167.846 336.827 170.473C334.381 173.101 330.268 173.248 327.64 170.802L261.604 109.319L195.568 170.802C192.94 173.248 188.827 173.101 186.381 170.473C183.935 167.846 184.082 163.733 186.709 161.287L252.065 100.438L186.709 39.59C184.082 37.1438 183.935 33.0308 186.381 30.4034Z" fill="white"/>
<circle cx="87.6774" cy="87.7255" r="14.4171" fill="white"/>
</svg>
